<?xml version="1.0" encoding="UTF-8"?>
<svg width="24px" height="24px" viewBox="0 0 24 24" version="1.1" xmlns="http://www.w3.org/2000/svg" xmlns:xlink="http://www.w3.org/1999/xlink">
    <title>Facebook</title>
    <g id="Symbols" stroke="none" stroke-width="1" fill="none" fill-rule="evenodd">
        <g transform="translate(-13.000000, -13.000000)" fill="#FFFFFF">
            <path d="M25.8191776,37 L14.3246158,37 C13.5928363,37 13,36.4067958 13,35.6753014 L13,14.3246055 C13,13.5929249 13.5929295,13 14.3246158,13 L35.6754774,13 C36.4069774,13 37,13.5929249 37,14.3246055 L37,35.6753014 C37,36.4068889 36.4068843,37 35.6754774,37 L29.5596526,37 L29.5596526,27.7058773 L32.6792606,27.7058773 L33.1463776,24.0837928 L29.5596526,24.0837928 L29.5596526,21.7713207 C29.5596526,20.7226437 29.8508558,20.0080048 31.3546448,20.0080048 L33.2726557,20.0071667 L33.2726557,16.7675453 C32.940943,16.7234042 31.8023918,16.6247851 30.477776,16.6247851 C27.7124171,16.6247851 25.8191776,18.3127631 25.8191776,21.4126044 L25.8191776,24.0837928 L22.6915609,24.0837928 L22.6915609,27.7058773 L25.8191776,27.7058773 L25.8191776,37 L25.8191776,37 Z" id="Facebook"></path>
        </g>
    </g>
</svg>
