<?xml version="1.0" encoding="UTF-8"?>
<svg width="24px" height="24px" viewBox="0 0 24 24" version="1.1" xmlns="http://www.w3.org/2000/svg" xmlns:xlink="http://www.w3.org/1999/xlink">
    <title>Github</title>
    <g id="Symbols" stroke="none" stroke-width="1" fill="none" fill-rule="evenodd">
        <g transform="translate(-13.000000, -13.000000)" fill="#FFFFFF">
            <path d="M13,25.3046693 C13,30.7399172 16.438,35.3515728 21.20725,36.9787636 C21.80725,37.0918057 22.02625,36.7119228 22.02625,36.3858694 C22.02625,36.0936518 22.01575,35.3200441 22.00975,34.2934374 C18.6715,35.0370544 17.96725,32.6439458 17.96725,32.6439458 C17.422,31.2228453 16.63525,30.8445004 16.63525,30.8445004 C15.5455,30.0808895 16.71775,30.0962694 16.71775,30.0962694 C17.9215,30.1831657 18.55525,31.3643401 18.55525,31.3643401 C19.62625,33.2445299 21.364,32.7016203 22.048,32.3863329 C22.15675,31.5911933 22.46725,31.0490527 22.81,30.7414552 C20.14525,30.4307817 17.344,29.3757223 17.344,24.6610215 C17.344,23.3175894 17.81125,22.2194663 18.57925,21.3589622 C18.4555,21.0475198 18.04375,19.7971359 18.69625,18.1030426 C18.69625,18.1030426 19.70425,17.7723753 21.99625,19.3641924 C22.954,19.0911996 23.98,18.9550877 25.00075,18.9497048 C26.02,18.9550877 27.04675,19.0911996 28.00525,19.3641924 C30.29575,17.7723753 31.3015,18.1030426 31.3015,18.1030426 C31.95625,19.7971359 31.5445,21.0475198 31.42075,21.3589622 C32.19025,22.2194663 32.6545,23.3175894 32.6545,24.6610215 C32.6545,29.3872572 29.84875,30.4277057 27.17575,30.7322273 C27.60625,31.1121102 27.99025,31.8626481 27.99025,33.0107558 C27.99025,34.6556335 27.97525,35.9821477 27.97525,36.3858694 C27.97525,36.7149988 28.19125,37.0979577 28.80025,36.9772256 C33.565,35.3469589 37,30.7383792 37,25.3046693 C37,18.5083023 31.627,13 24.99925,13 C18.373,13 13,18.5083023 13,25.3046693 Z" id="Github"></path>
        </g>
    </g>
</svg>
