<?xml version="1.0" encoding="UTF-8"?>
<svg width="24px" height="24px" viewBox="0 0 24 24" version="1.1" xmlns="http://www.w3.org/2000/svg" xmlns:xlink="http://www.w3.org/1999/xlink">
    <title>Google-color</title>
    <g id="Symbols" stroke="none" stroke-width="1" fill="none" fill-rule="evenodd">
        <g transform="translate(-13.000000, -13.000000)">
            <g transform="translate(13.000000, 13.000000)">
                <path d="M12,4.64 C14.2533333,4.64 15.7733333,5.61333333 16.64,6.42666667 L20.0266667,3.12 C17.9466667,1.18666667 15.24,0 12,0 C7.30666667,0 3.25333333,2.69333333 1.28,6.61333333 L5.16,9.62666667 C6.13333333,6.73333333 8.82666667,4.64 12,4.64 L12,4.64 Z" fill="#EA4335"></path>
                <path d="M23.52,12.2666667 C23.52,11.28 23.44,10.56 23.2666667,9.81333333 L12,9.81333333 L12,14.2666667 L18.6133333,14.2666667 C18.48,15.3733333 17.76,17.04 16.16,18.16 L19.9466667,21.0933333 C22.2133333,19 23.52,15.92 23.52,12.2666667 L23.52,12.2666667 Z" fill="#4285F4"></path>
                <path d="M5.17333333,14.3733333 C4.92,13.6266667 4.77333333,12.8266667 4.77333333,12 C4.77333333,11.1733333 4.92,10.3733333 5.16,9.62666667 L1.28,6.61333333 C0.466666667,8.24 0,10.0666667 0,12 C0,13.9333333 0.466666667,15.76 1.28,17.3866667 L5.17333333,14.3733333 L5.17333333,14.3733333 Z" fill="#FBBC05"></path>
                <path d="M12,24 C15.24,24 17.96,22.9333333 19.9466667,21.0933333 L16.16,18.16 C15.1466667,18.8666667 13.7866667,19.36 12,19.36 C8.82666667,19.36 6.13333333,17.2666667 5.17333333,14.3733333 L1.29333333,17.3866667 C3.26666667,21.3066667 7.30666667,24 12,24 L12,24 Z" fill="#34A853"></path>
                <polygon points="0 0 24 0 24 24 0 24"></polygon>
            </g>
        </g>
    </g>
</svg>
