<?xml version="1.0" encoding="UTF-8"?>
<svg width="24px" height="22px" viewBox="0 0 24 22" version="1.1" xmlns="http://www.w3.org/2000/svg" xmlns:xlink="http://www.w3.org/1999/xlink">
    <title>LinkedIn</title>
    <g id="Symbols" stroke="none" stroke-width="1" fill="none" fill-rule="evenodd">
        <g transform="translate(-13.000000, -14.000000)" fill="#FFFFFF">
            <path d="M37,35.6 L31.6955539,35.6 L31.6955539,28.0067362 C31.6955539,26.0192098 30.8658082,24.6623807 29.0412142,24.6623807 C27.6456044,24.6623807 26.8694817,25.5779983 26.5082318,26.4604213 C26.3727631,26.7771531 26.3939301,27.2183646 26.3939301,27.6595761 L26.3939301,35.6 L21.1388736,35.6 C21.1388736,35.6 21.206608,22.1492732 21.1388736,20.9266056 L26.3939301,20.9266056 L26.3939301,23.2294807 C26.7043792,22.222578 28.3836265,20.7855286 31.0633667,20.7855286 C34.3879942,20.7855286 37,22.8961516 37,27.441045 L37,35.6 L37,35.6 Z M15.8249003,19.0912211 L15.7910354,19.0912211 C14.0977884,19.0912211 13,17.9695204 13,16.5476852 C13,15.0981879 14.1302423,14 15.8573542,14 C17.5830551,14 18.6441565,15.0954217 18.6780214,16.5435359 C18.6780214,17.9653711 17.5830551,19.0912211 15.8249003,19.0912211 L15.8249003,19.0912211 L15.8249003,19.0912211 Z M13.6053358,20.9266056 L18.2829305,20.9266056 L18.2829305,35.6 L13.6053358,35.6 L13.6053358,20.9266056 L13.6053358,20.9266056 Z" id="LinkedIn"></path>
        </g>
    </g>
</svg>
