<?xml version="1.0" encoding="UTF-8"?>
<svg width="24px" height="6px" viewBox="0 0 24 6" version="1.1" xmlns="http://www.w3.org/2000/svg" xmlns:xlink="http://www.w3.org/1999/xlink">
    <!-- Generator: Sketch 41.2 (35397) - http://www.bohemiancoding.com/sketch -->
    <title>More</title>
    <g id="Symbols" stroke="none" stroke-width="1" fill="none" fill-rule="evenodd">
        <g transform="translate(-13.000000, -22.000000)" fill="#364052">
            <path d="M16,28 C17.6568542,28 19,26.6568542 19,25 C19,23.3431458 17.6568542,22 16,22 C14.3431458,22 13,23.3431458 13,25 C13,26.6568542 14.3431458,28 16,28 Z M25,28 C26.6568542,28 28,26.6568542 28,25 C28,23.3431458 26.6568542,22 25,22 C23.3431458,22 22,23.3431458 22,25 C22,26.6568542 23.3431458,28 25,28 Z M34,28 C35.6568542,28 37,26.6568542 37,25 C37,23.3431458 35.6568542,22 34,22 C32.3431458,22 31,23.3431458 31,25 C31,26.6568542 32.3431458,28 34,28 Z" id="More"></path>
        </g>
    </g>
</svg>
