<?xml version="1.0" encoding="UTF-8"?>
<svg width="24px" height="24px" viewBox="0 0 24 24" version="1.1" xmlns="http://www.w3.org/2000/svg" xmlns:xlink="http://www.w3.org/1999/xlink">
    <title>Other</title>
    <g stroke-width="1" fill="none" fill-rule="evenodd">
        <g transform="translate(-13.000000, -13.000000)" fill-rule="nonzero" fill="#FFFFFF">
            <path d="M24.988,13 C18.364,13 13,18.376 13,25 C13,31.624 18.364,37 24.988,37 C31.624,37 37,31.624 37,25 C37,18.376 31.624,13 24.988,13 Z M33.304,20.2 L29.764,20.2 C29.38,18.7 28.828,17.26 28.108,15.928 C30.316,16.684 32.152,18.22 33.304,20.2 Z M25,15.448 C25.996,16.888 26.776,18.484 27.292,20.2 L22.708,20.2 C23.224,18.484 24.004,16.888 25,15.448 Z M15.712,27.4 C15.52,26.632 15.4,25.828 15.4,25 C15.4,24.172 15.52,23.368 15.712,22.6 L19.768,22.6 C19.672,23.392 19.6,24.184 19.6,25 C19.6,25.816 19.672,26.608 19.768,27.4 L15.712,27.4 Z M16.696,29.8 L20.236,29.8 C20.62,31.3 21.172,32.74 21.892,34.072 C19.684,33.316 17.848,31.792 16.696,29.8 L16.696,29.8 Z M20.236,20.2 L16.696,20.2 C17.848,18.208 19.684,16.684 21.892,15.928 C21.172,17.26 20.62,18.7 20.236,20.2 L20.236,20.2 Z M25,34.552 C24.004,33.112 23.224,31.516 22.708,29.8 L27.292,29.8 C26.776,31.516 25.996,33.112 25,34.552 Z M27.808,27.4 L22.192,27.4 C22.084,26.608 22,25.816 22,25 C22,24.184 22.084,23.38 22.192,22.6 L27.808,22.6 C27.916,23.38 28,24.184 28,25 C28,25.816 27.916,26.608 27.808,27.4 Z M28.108,34.072 C28.828,32.74 29.38,31.3 29.764,29.8 L33.304,29.8 C32.152,31.78 30.316,33.316 28.108,34.072 L28.108,34.072 Z M30.232,27.4 C30.328,26.608 30.4,25.816 30.4,25 C30.4,24.184 30.328,23.392 30.232,22.6 L34.288,22.6 C34.48,23.368 34.6,24.172 34.6,25 C34.6,25.828 34.48,26.632 34.288,27.4 L30.232,27.4 Z" id="Other"></path>
        </g>
    </g>
</svg>
