<?xml version="1.0" encoding="UTF-8"?>
<svg width="24px" height="20px" viewBox="0 0 24 20" version="1.1" xmlns="http://www.w3.org/2000/svg" xmlns:xlink="http://www.w3.org/1999/xlink">
    <title>Twitter</title>
    <g id="Symbols" stroke="none" stroke-width="1" fill="none" fill-rule="evenodd">
        <g transform="translate(-13.000000, -15.000000)" fill="#FFFFFF">
            <path d="M37,17.3676417 C36.1181546,17.7692308 35.1686917,18.040809 34.1727417,18.1621524 C35.1898222,17.5381004 35.9702412,16.5485735 36.3379116,15.3698086 C35.3856313,15.9476345 34.3333333,16.3680029 33.2091918,16.593355 C32.3132594,15.6124955 31.0327522,15 29.6156013,15 C26.8982215,15 24.693608,17.260744 24.693608,20.0487541 C24.693608,20.4445648 24.735869,20.8288191 24.8203909,21.1986277 C20.7281211,20.9877212 17.100722,18.9797761 14.6707167,15.9216324 C14.2466984,16.6699169 14.0044022,17.5381004 14.0044022,18.4626219 C14.0044022,20.2134345 14.8735693,21.7591188 16.1949287,22.664861 C15.389153,22.6403034 14.6284557,22.4106176 13.9635499,22.0350307 L13.9635499,22.097147 C13.9635499,24.5442398 15.6610319,26.5854099 17.9149498,27.0476706 C17.5022011,27.166125 17.0669132,27.2253521 16.6175383,27.2253521 C16.3005811,27.2253521 15.9906674,27.1950163 15.6906145,27.1357891 C16.3174855,29.1408451 18.1347068,30.6013001 20.2900158,30.6403034 C18.6052122,31.9953052 16.4808945,32.8028169 14.1748547,32.8028169 C13.7776017,32.8028169 13.3845747,32.7797039 13,32.7334778 C15.1792569,34.163597 17.7684451,35 20.5478077,35 C29.6057404,35 34.5573164,27.3076923 34.5573164,20.6352474 C34.5573164,20.4156735 34.5530903,20.1960997 34.5446381,19.9808595 C35.5067794,19.2686891 36.3421377,18.3802817 37,17.3676417" id="Twitter"></path>
        </g>
    </g>
</svg>
